HIERARCHY
ROOT Hips
{
  OFFSET -284.245 89.1395 266.828
  CHANNELS 6 Xposition Yposition Zposition Zrotation Xrotation Yrotation
  JOINT ToSpine
  {
    OFFSET -0.0105055 1.38907 -7.13956
    CHANNELS 3 Zrotation Xrotation Yrotation
    JOINT Spine
    {
      OFFSET 0.0105055 10 1
      CHANNELS 3 Zrotation Xrotation Yrotation
      JOINT Spine1
      {
        OFFSET 0 12 1.60637
        CHANNELS 3 Zrotation Xrotation Yrotation
        JOINT Neck
        {
          OFFSET 0 27 2.26658
          CHANNELS 3 Zrotation Xrotation Yrotation
          JOINT Head
          {
            OFFSET 0 9 2.12705
            CHANNELS 3 Zrotation Xrotation Yrotation
            End Site
            {
              OFFSET 0 11 2
            }
          }
        }
        JOINT LeftShoulder
        {
          OFFSET 8 19.6109 2.86452
          CHANNELS 3 Zrotation Xrotation Yrotation
          JOINT LeftArm
          {
            OFFSET 12 1 0.681055
            CHANNELS 3 Zrotation Xrotation Yrotation
            JOINT LeftForeArm
            {
              OFFSET 19 0 -1.52608
              CHANNELS 3 Zrotation Xrotation Yrotation
              JOINT LeftHand
              {
                OFFSET 23 0 0
                CHANNELS 3 Zrotation Xrotation Yrotation
                End Site
                {
                  OFFSET 10 0 0
                }
              }
            }
          }
        }
        JOINT RightShoulder
        {
          OFFSET -8 19.6109 2.86452
          CHANNELS 3 Zrotation Xrotation Yrotation
          JOINT RightArm
          {
            OFFSET -12 1 0.681055
            CHANNELS 3 Zrotation Xrotation Yrotation
            JOINT RightForeArm
            {
              OFFSET -19 0 -1.52608
              CHANNELS 3 Zrotation Xrotation Yrotation
              JOINT RightHand
              {
                OFFSET -23 0 0
                CHANNELS 3 Zrotation Xrotation Yrotation
                End Site
                {
                  OFFSET -10 0 0
                }
              }
            }
          }
        }
      }
    }
  }
  JOINT LeftUpLeg
  {
    OFFSET 9 -7.17245 0
    CHANNELS 3 Zrotation Xrotation Yrotation
    JOINT LeftLeg
    {
      OFFSET 0 -44.1113 0
      CHANNELS 3 Zrotation Xrotation Yrotation
      JOINT LeftFoot
      {
        OFFSET 0 -36.1829 0
        CHANNELS 3 Zrotation Xrotation Yrotation
        JOINT LeftToeBase
        {
          OFFSET 0 -4.84184 13
          CHANNELS 3 Zrotation Xrotation Yrotation
          End Site
          {
            OFFSET 0 1 6
          }
        }
      }
    }
  }
  JOINT RightUpLeg
  {
    OFFSET -9 -7.17245 0
    CHANNELS 3 Zrotation Xrotation Yrotation
    JOINT RightLeg
    {
      OFFSET 0 -44.0551 0
      CHANNELS 3 Zrotation Xrotation Yrotation
      JOINT RightFoot
      {
        OFFSET 0 -36.1469 0
        CHANNELS 3 Zrotation Xrotation Yrotation
        JOINT RightToeBase
        {
          OFFSET 0 -4.92256 13
          CHANNELS 3 Zrotation Xrotation Yrotation
          End Site
          {
            OFFSET 0 1 6
          }
        }
      }
    }
  }
}
MOTION
Frames:	14
Frame Time:	0.0333333
-285.154 88.9389 267.686 11.4853 0.718769 131.873 0 0 0 13.1618 -11.5907 0.20221 -5.94451 22.3629 2.00247 11.3972 3.09168 -1.08275 -3.4291 -0.552669 3.36311 -29.6556 3.9243 -7.45354 -46.0602 1.19845 -17.4263 -35.0284 -19.1591 -64.9103 -13.494 -0.852617 7.18726 24.0144 5.26156 13.7652 45.7886 -7.54454 4.09047 12.9843 -5.66621 66.8196 10.3632 -0.369803 -4.06509 -0.747968 38.738 8.09131 1.22682 0.785778 -2.44788 6.58307 -15.1793 0.878701 1.05517 -9.18113 -3.00106 9.8549 -19.4515 -0.715187 2.34238 25.8781 -1.27485 -17.2633 4.08991 0.616772 3.50564 -12.7465 -7.67566 
-282.785 89.5784 265.378 11.7081 1.45058 132.295 0 0 0 12.8552 -10.5716 0.0825281 -5.69653 21.0138 1.61654 10.7876 3.31134 -1.03144 -3.12416 -0.497758 3.17077 -29.7306 3.98512 -7.60056 -46.6393 1.7538 -16.2629 -35.5998 -19.7838 -64.6963 -13.1611 -1.07905 9.35827 23.4843 5.1375 13.6421 46.3379 -7.3356 3.64804 12.5885 -5.50163 66.7651 10.4248 -0.369318 -4.0461 -0.0866328 38.3809 8.77166 1.02122 5.21448 -3.70903 5.87011 -8.86497 0.452343 1.9199 -17.6843 -6.63604 8.92194 -17.6247 -3.77505 1.61698 28.42 1.38722 -17.1174 1.62303 0.257315 3.13576 -10.8945 -7.95285 
-279.437 90.6836 262.003 12.2628 2.35844 132.172 0 0 0 13.9831 -9.66279 0.301788 -7.2348 20.2135 1.79711 10.4529 2.99526 -0.79175 -3.14513 -0.422628 3.27791 -29.064 3.95364 -7.71536 -47.7693 2.64948 -14.9712 -34.9537 -20.0834 -63.8374 -12.5578 -1.28598 11.6404 23.3972 5.12992 13.666 46.6315 -7.28704 3.43901 12.2817 -5.34307 66.8417 10.4037 -0.389755 -4.27865 1.54294 35.4792 9.57991 0.421578 16.4462 -6.58216 4.4393 -2.60475 0.108469 1.94173 -17.5228 -9.86578 8.13801 -13.5915 -6.72683 0.487262 29.7106 3.94148 -16.6138 -2.41642 -0.359698 2.73446 -9.166 -6.46828 
-276.576 91.5777 259.999 11.3608 2.82564 130.481 0 0 0 13.3173 -6.18677 1.2622 -8.22603 15.6882 2.51991 10.1281 3.74442 -0.533137 -3.43373 -1.19894 3.53514 -28.8569 3.91303 -7.66569 -47.5986 3.39139 -14.0219 -33.651 -20.2824 -62.4922 -13.2858 -1.40613 12.0133 23.6668 5.56729 14.9478 46.6312 -8.04609 2.85402 11.4854 -4.95348 66.9764 10.7251 -0.409515 -4.36105 3.23454 27.0931 13.1746 -0.292673 33.5091 -10.7996 4.18301 1.70072 -0.0859965 1.46077 -2.80722 -5.04547 7.95481 -11.1342 -5.07943 0.0857257 29.2022 3.49717 -17.0762 -4.51412 -0.677086 2.62646 -9.05392 -4.7537 
-274.166 92.1749 258.283 10.081 2.19057 130.081 0 0 0 13.5403 -4.48897 1.98552 -9.31836 12.4154 3.08081 9.71358 4.39528 -0.694221 -3.99179 -1.65342 3.40096 -29.0695 3.88655 -7.52512 -46.3687 3.43701 -14.2845 -31.026 -19.6697 -60.7679 -15.6961 -1.45147 10.6487 23.5646 5.69246 15.4186 46.8927 -8.80802 2.96797 8.99734 -3.86266 66.9524 12.2098 -0.437014 -4.10432 6.23825 17.4171 15.3706 0.166398 47.871 -13.7329 5.14426 3.61292 -0.172862 0.541492 -0.318134 -2.19988 8.08532 -9.7565 -4.50616 -0.0458222 27.6857 4.41938 -17.8887 -4.6789 -0.73581 3.06914 -10.5394 -7.37844 
-271.973 92.7332 256.097 9.20114 1.07957 131.375 0 0 0 15.3261 -6.87865 2.19918 -10.6976 14.0302 3.3506 8.41373 4.25129 -0.625343 -3.58506 -1.39376 2.94097 -29.7047 3.86862 -7.28453 -45.4208 3.3622 -15.4588 -29.7913 -19.4103 -59.8654 -14.8405 -0.880445 6.38173 22.9596 5.4162 14.8626 47.6559 -8.07848 4.44847 11.375 -5.02744 66.4625 11.4413 -0.35176 -3.44934 8.35516 8.94516 14.3278 -0.0162973 56.7067 -13.5571 7.21776 -1.41383 0.125445 1.12931 -3.56173 -4.33119 8.13987 -7.75515 -5.92757 0.256662 24.9009 5.25374 -19.6379 -4.71845 -0.81812 3.45258 -12.3558 -9.8979 
-270.125 93.3764 254.561 7.46352 0.824983 132.363 0 0 0 14.5558 -7.13215 2.56735 -10.8678 13.2014 3.76897 7.61976 5.15043 -0.741548 -3.21703 -1.66873 2.5365 -29.871 3.88802 -7.2887 -45.3365 3.75212 -16.4679 -31.2568 -21.0098 -59.4306 -12.8665 -0.343734 3.1598 22.9378 5.35327 14.6676 48.1448 -7.3734 5.14085 13.7385 -6.21987 66.0994 9.19259 -0.220281 -2.75879 8.45623 -0.0871358 13.5507 0.0709472 61.9449 -12.0939 10.2294 -7.0627 0.626491 1.26886 -1.54195 -5.16811 7.18336 -6.15565 -5.48761 0.968612 21.666 3.63821 -20.7808 -4.76222 -0.876593 3.60205 -13.1727 -9.83142 
-268.383 94.1597 252.75 5.73293 0.494123 133.222 0 0 0 14.5023 -7.37799 2.76901 -11.4605 12.4029 4.23242 6.31399 5.87126 -0.508393 -2.37887 -1.55925 2.18155 -29.9838 3.80492 -7.02942 -44.9726 3.54709 -16.1627 -31.273 -20.4405 -60.1012 -13.2697 -0.418836 3.61198 22.6614 5.21671 14.363 48.6583 -7.12858 5.93407 12.093 -5.62203 65.4281 9.10129 -0.194094 -2.43452 7.2998 -8.27537 12.1963 -0.0231664 62.1602 -7.96157 11.251 -9.55241 0.93915 0.979205 -2.19443 -3.87785 5.93483 -4.47361 -4.58438 1.70631 18.5192 1.87541 -18.5637 -5.58543 -0.900967 3.34112 -11.7907 -8.57116 
-266.353 94.8218 250.31 5.0659 0.0758338 133.021 0 0 0 16.9373 -8.32567 3.43239 -13.9989 13.4133 5.46838 5.18972 6.15358 -0.31477 -1.74066 -1.35582 1.86857 -29.7996 3.75295 -6.93779 -44.7848 2.66195 -15.9298 -30.3144 -19.2963 -60.5258 -14.3931 -0.619752 4.86755 22.6749 5.21052 14.3352 48.8365 -6.98161 6.80873 12.1236 -5.77132 64.9147 8.50409 -0.221026 -3.0104 6.43705 -13.8393 11.6413 -0.0605212 58.1742 -3.17687 11.5835 -10.7459 1.09902 0.551245 -3.38953 -1.52086 5.42762 -0.969061 -3.54169 2.04345 14.0873 1.26991 -16.7714 -5.96781 -0.881155 2.9783 -10.2218 -7.22769 
-263.979 95.0049 248.248 4.87509 0.298635 130.775 0 0 0 18.4271 -6.9963 4.7007 -16.0922 13.1721 7.36836 4.79919 6.18524 -0.416198 -2.60398 -1.75511 1.80766 -29.7337 3.74081 -6.92344 -44.3377 1.97828 -16.2843 -30.6042 -19.1915 -60.9368 -14.9552 -0.730936 5.58111 22.4734 5.21688 14.4745 49.2987 -6.53568 7.55843 12.3598 -5.96008 64.6457 8.49934 -0.204496 -2.80418 6.71869 -17.2287 13.3421 -0.0170838 51.7717 0.268736 9.09646 -13.0088 1.02185 0.637002 -1.13887 -2.51608 5.56639 3.00774 -2.54402 1.18266 10.2273 2.45778 -17.692 -6.11885 -0.953835 3.11343 -10.7966 -7.63252 
-261.839 94.8187 246.267 4.28494 0.31243 129.263 0 0 0 18.7421 -5.06578 5.25957 -16.3681 11.6697 8.29161 3.19697 5.92086 0.249053 -2.65202 -2.18178 1.90417 -30.5972 3.74904 -6.70167 -42.9817 1.52058 -16.0689 -30.3645 -18.426 -61.6527 -13.9524 -0.5409 4.39704 21.1181 5.02069 14.6026 50.2974 -5.48597 8.73708 12.3492 -6.04842 64.2994 8.85733 -0.177018 -2.28886 6.433 -20.2435 14.6317 0.0852541 42.2832 1.39585 8.22375 -12.9188 0.926499 0.814282 1.18858 -3.54299 5.34475 5.05193 -2.6942 0.268987 9.16239 3.42158 -18.806 -7.31254 -1.21584 3.25982 -11.6204 -6.99865 
-259.762 94.4443 243.46 3.85536 -0.646045 129.529 0 0 0 21.1827 -5.35396 5.33146 -17.6326 11.3802 8.65229 1.92016 5.83686 0.746957 -2.4727 -2.81379 1.90824 -31.0848 3.79558 -6.69536 -42.1036 0.791526 -15.8846 -29.9129 -17.7699 -62.0552 -13.8899 -0.481744 3.94611 21.4193 5.30175 15.3899 49.1594 -5.01346 9.12811 12.242 -5.90312 64.6389 9.65702 -0.218204 -2.58889 5.75525 -22.4571 13.484 -0.477062 29.8682 0.428439 10.3306 -7.3838 0.662902 0.58664 -1.43011 -2.25107 5.18817 6.49569 -4.0128 0.250396 9.05387 3.87047 -18.697 -9.11072 -1.49366 3.27838 -11.8423 -5.31601 
-257.347 93.6169 240.445 3.90213 -1.37352 129.653 0 0 0 23.7339 -5.6703 5.39576 -19.4974 11.817 9.13126 1.83267 4.46423 0.805361 -2.91871 -2.15505 2.01409 -30.6897 3.69379 -6.52366 -40.4958 1.05786 -15.5868 -33.7588 -18.1327 -65.0324 -14.1603 -0.674221 5.43358 22.7135 5.63885 15.7621 47.2198 -4.08893 10.1244 13.5393 -6.39142 65.1896 9.4055 -0.219331 -2.69087 5.52025 -22.9332 9.743 -2.37405 16.7826 0.0812079 10.3948 -1.34713 0.131473 0.707136 -6.67039 -1.42817 5.24184 8.79452 -5.21801 0.31224 9.10493 5.05027 -18.5517 -11.6962 -1.92092 3.29987 -11.8206 -6.64917 
-254.698 92.4148 237.427 4.03544 -1.83939 129.665 0 0 0 25.1705 -5.98469 5.46946 -20.2467 12.1994 9.25508 0.939055 3.34637 1.25241 -2.75471 -1.6525 2.12555 -31.3876 3.59898 -6.09429 -39.3902 0.367524 -15.2468 -34.447 -17.1099 -66.7845 -13.6334 -0.642153 5.35254 22.6959 5.62502 15.7222 46.4246 -2.76151 11.8346 14.7861 -6.94612 65.3839 7.69487 -0.206718 -3.06096 5.34293 -23.4437 6.88684 -2.89817 7.02661 0.250385 8.3159 -0.156227 0.0029142 0.615344 -5.11411 -1.38103 5.31883 11.3547 -6.15867 0.437792 9.4866 5.88924 -20.1444 -14.5565 -2.60621 3.4502 -12.4208 -8.50018 
